<svg xmlns="http://www.w3.org/2000/svg" xmlns:xlink="http://www.w3.org/1999/xlink" version="1.1" width="1280" height="1024" viewBox="0 0 1280 1024" xml:space="preserve">
<desc>Created with Fabric.js 4.4.0</desc>
<defs>
</defs>
<g transform="matrix(1 0 0 1 640 512)" id="background-logo"  >
<rect style="stroke: none; stroke-width: 0; stroke-dasharray: none; stroke-linecap: butt; stroke-dashoffset: 0; stroke-linejoin: miter; stroke-miterlimit: 4; fill: rgb(255,255,255); fill-opacity: 0; fill-rule: nonzero; opacity: 1;"  paint-order="stroke"  x="-640" y="-512" rx="0" ry="0" width="1280" height="1024" />
</g>
<g transform="matrix(4.127757592559472 0 0 4.127757592559472 640.4267771701983 311.5222276934103)" id="shape-286e6331-f69b-4d56-ae30-f57222854c21"  >
<g style=""  paint-order="stroke"   >
		<g transform="matrix(1 0 0 1 0 0)" id="path-01_00000023988059505323881430000002803660119898901413_"  >
<path style="stroke: none; stroke-width: 1; stroke-dasharray: none; stroke-linecap: butt; stroke-dashoffset: 0; stroke-linejoin: miter; stroke-miterlimit: 4; fill: rgb(255,190,88); fill-rule: nonzero; opacity: 1;"  paint-order="stroke"  transform=" translate(-150, -50.8634)" d="M 77.03861 101.72679 C 74.78674000000001 101.72679 72.96123 99.90123 72.96123 97.6494 L 72.96123 4.0774 C 72.96123 1.82557 74.78675 0.000009999999999621423 77.03861 0.000009999999999621423 C 79.29047000000001 0.000009999999999621423 81.11599000000001 1.8255699999999997 81.11599000000001 4.0774 L 81.11599000000001 97.6494 C 81.116 99.90123 79.29049 101.72679 77.03861 101.72679 z M 62.87592 84.19579 L 62.87592 17.53101 C 62.87592 15.279179999999998 61.05041 13.453619999999997 58.79854 13.453619999999997 C 56.54666 13.453619999999997 54.721160000000005 15.279179999999997 54.721160000000005 17.53101 L 54.721160000000005 84.19578999999999 C 54.721160000000005 86.44761999999999 56.546670000000006 88.27317999999998 58.79854 88.27317999999998 C 61.05041 88.27317999999998 62.87592 86.44762 62.87592 84.19579 z M 44.63552 66.41845 L 44.63552 35.30823 C 44.63552 33.056400000000004 42.81001 31.230960000000003 40.55814 31.230960000000003 C 38.306270000000005 31.230960000000003 36.480760000000004 33.056400000000004 36.480760000000004 35.30823 L 36.480760000000004 66.41845 C 36.480760000000004 68.6704 38.306270000000005 70.49584 40.55814 70.49584 C 42.81001 70.49584 44.63552 68.6704 44.63552 66.41845 z M 26.39514 60.82616 L 26.39514 40.90063 C 26.39514 38.64868 24.56963 36.82324 22.31776 36.82324 C 20.06589 36.82324 18.240380000000002 38.64868 18.240380000000002 40.90063 L 18.240380000000002 60.82616 C 18.240380000000002 63.07811 20.065890000000003 64.90355 22.31776 64.90355 C 24.569629999999997 64.90355 26.39514 63.07812 26.39514 60.82616 z M 8.15476 54.8872 L 8.15476 46.8396 C 8.15476 44.58777 6.32925 42.762209999999996 4.07738 42.762209999999996 C 1.8255099999999995 42.762209999999996 0 44.58776 0 46.8396 L 0 54.887209999999996 C 0 57.139039999999994 1.82551 58.9646 4.07738 58.9646 C 6.32925 58.9646 8.15476 57.13903 8.15476 54.8872 z M 99.35638 84.19579 L 99.35638 17.53101 C 99.35638 15.279179999999998 97.53086 13.453619999999997 95.279 13.453619999999997 C 93.02713 13.453619999999997 91.20163 15.279179999999997 91.20163 17.53101 L 91.20163 84.19578999999999 C 91.20163 86.44761999999999 93.02713 88.27317999999998 95.279 88.27317999999998 C 97.53086 88.27319 99.35638 86.44762 99.35638 84.19579 z M 117.59676 68.62133 L 117.59676 33.10547 C 117.59676 30.853519999999996 115.77126 29.028079999999996 113.51938 29.028079999999996 C 111.26752 29.028079999999996 109.442 30.853519999999996 109.442 33.10547 L 109.442 68.62133 C 109.442 70.87328 111.26751999999999 72.69872 113.51938 72.69872 C 115.77126 72.69872 117.59676 70.87328 117.59676 68.62133 z M 135.83714 60.82616 L 135.83714 40.90063 C 135.83714 38.64868 134.01164 36.82324 131.75976 36.82324 C 129.5079 36.82324 127.68239 38.64868 127.68239 40.90063 L 127.68239 60.82616 C 127.68239 63.07811 129.5079 64.90355 131.75976 64.90355 C 134.01164 64.90356 135.83714 63.07812 135.83714 60.82616 z M 154.07722 54.8872 L 154.07722 46.8396 C 154.07722 44.58777 152.25172 42.762209999999996 149.99984 42.762209999999996 C 147.74798 42.762209999999996 145.92246 44.58777 145.92246 46.8396 L 145.92246 54.887209999999996 C 145.92246 57.139039999999994 147.74798 58.9646 149.99984 58.9646 C 152.25172 58.9646 154.07722 57.13903 154.07722 54.8872 z M 227.03877 97.6494 L 227.03877 4.0774 C 227.03877 1.82557 225.21327 0.000009999999999621423 222.96138 0.000009999999999621423 C 220.70952 0.000009999999999621423 218.88402 1.8255699999999997 218.88402 4.0774 L 218.88402 97.6494 C 218.88402 99.90123 220.70952 101.72679 222.96138 101.72679 C 225.21327 101.72679 227.03877 99.90123 227.03877 97.6494 z M 208.79839 84.19579 L 208.79839 17.53101 C 208.79839 15.279179999999998 206.97287 13.453619999999997 204.72101 13.453619999999997 C 202.46913 13.453619999999997 200.64362 15.279179999999997 200.64362 17.53101 L 200.64362 84.19578999999999 C 200.64362 86.44761999999999 202.46914 88.27317999999998 204.72101 88.27317999999998 C 206.97287 88.27319 208.79839 86.44762 208.79839 84.19579 z M 190.558 68.62133 L 190.558 33.10547 C 190.558 30.853519999999996 188.73247999999998 29.028079999999996 186.48062 29.028079999999996 C 184.22876 29.028079999999996 182.40323999999998 30.853519999999996 182.40323999999998 33.10547 L 182.40323999999998 68.62133 C 182.40323999999998 70.87328 184.22876 72.69872 186.48062 72.69872 C 188.73247999999998 72.69872 190.558 70.87328 190.558 68.62133 z M 172.31761 60.82616 L 172.31761 40.90063 C 172.31761 38.64868 170.49211 36.82324 168.24023 36.82324 C 165.98837 36.82324 164.16285 38.64868 164.16285 40.90063 L 164.16285 60.82616 C 164.16285 63.07811 165.98837 64.90355 168.24023 64.90355 C 170.49211 64.90356 172.31761 63.07812 172.31761 60.82616 z M 245.27885 84.19579 L 245.27885 17.53101 C 245.27885 15.279179999999998 243.45335 13.453619999999997 241.20146 13.453619999999997 C 238.9496 13.453619999999997 237.1241 15.279179999999997 237.1241 17.53101 L 237.1241 84.19578999999999 C 237.1241 86.44761999999999 238.9496 88.27317999999998 241.20146 88.27317999999998 C 243.45335 88.27319 245.27885 86.44762 245.27885 84.19579 z M 263.51923 66.41845 L 263.51923 35.30823 C 263.51923 33.056400000000004 261.69373 31.230960000000003 259.44184 31.230960000000003 C 257.18998 31.230960000000003 255.36449000000002 33.056400000000004 255.36449000000002 35.30823 L 255.36449000000002 66.41845 C 255.36449000000002 68.6704 257.18998 70.49584 259.44184 70.49584 C 261.69373 70.49584 263.51923 68.6704 263.51923 66.41845 z M 281.75961 60.82616 L 281.75961 40.90063 C 281.75961 38.64868 279.93411000000003 36.82324 277.68222000000003 36.82324 C 275.43036 36.82324 273.60486000000003 38.64868 273.60486000000003 40.90063 L 273.60486000000003 60.82616 C 273.60486000000003 63.07811 275.43036 64.90355 277.68222000000003 64.90355 C 279.93411 64.90356 281.75961 63.07812 281.75961 60.82616 z M 300 54.8872 L 300 46.8396 C 300 44.58777 298.1745 42.762209999999996 295.92264 42.762209999999996 C 293.67075 42.762209999999996 291.84525 44.58777 291.84525 46.8396 L 291.84525 54.887209999999996 C 291.84525 57.139039999999994 293.67075 58.9646 295.92264 58.9646 C 298.1745 58.9646 300 57.13903 300 54.8872 z" stroke-linecap="round" />
</g>
</g>
</g>
<g transform="matrix(1.9211538461538462 0 0 1.9211538461538462 640.4527802876863 600.0910233365781)" id="text-logo-path-group"  >
<g style=""  paint-order="stroke"   >
		<g transform="matrix(1 0 0 1 5.684342e-14 0)" id="text-logo-path-0"  >
<path style="stroke: none; stroke-width: 0; stroke-dasharray: none; stroke-linecap: butt; stroke-dashoffset: 0; stroke-linejoin: miter; stroke-miterlimit: 4; fill: rgb(255,145,77); fill-rule: nonzero; opacity: 1;"  paint-order="stroke"  transform=" translate(-313.725, 45.434999999999995)" d="M 50.39 0 L 1.91 0 L 1.91 -2.4 L 10.09 -2.4 L 10.09 -85.83 L 1.91 -85.83 L 1.91 -88.22 L 38.94 -88.22 Q 48.3 -88.22 54.91 -87.06 Q 61.52 -85.89 66.57 -83.12 Q 71.61 -80.35 74.1 -75.4 Q 76.6 -70.44 76.6 -63.12 L 76.6 -63.12 Q 76.6 -56.85 74.66 -52.11 Q 72.72 -47.37 69.28 -44.36 Q 65.83 -41.34 60.6 -39.5 Q 55.37 -37.65 49.37 -36.91 Q 43.37 -36.18 35.68 -36.18 L 35.68 -36.18 L 34.64 -36.18 L 34.64 -2.4 L 50.39 -2.4 L 50.39 0 Z M 34.64 -85.83 L 34.64 -38.58 L 37.28 -38.58 Q 44.91 -38.58 47.77 -43.74 Q 50.63 -48.91 50.63 -60.48 L 50.63 -60.48 L 50.63 -66.51 Q 50.63 -77.27 47.9 -81.55 Q 45.16 -85.83 38.02 -85.83 L 38.02 -85.83 L 34.64 -85.83 Z M 87.94 -57.71 L 80.87 -57.71 L 80.87 -59.99 L 111.38 -59.99 L 111.38 -16.73 Q 111.38 -11.5 111.94 -8.77 Q 112.49 -6.03 113.41 -5.23 Q 114.34 -4.43 116.06 -4.43 L 116.06 -4.43 Q 120 -4.43 122.49 -8.31 Q 124.98 -12.18 124.98 -19.13 L 124.98 -19.13 L 124.98 -57.71 L 119.2 -57.71 L 119.2 -59.99 L 148.42 -59.99 L 148.42 -2.28 L 155.37 -2.28 L 155.37 0 L 126.64 0 L 125.23 -9.23 Q 123.2 -4.18 119.26 -1.48 Q 115.32 1.23 107.45 1.23 L 107.45 1.23 Q 87.94 1.23 87.94 -19.81 L 87.94 -19.81 L 87.94 -57.71 Z M 198.28 0 L 158.97 0 L 158.97 -2.28 L 165.92 -2.28 L 165.92 -57.71 L 158.97 -57.71 L 158.97 -59.99 L 189.36 -59.99 L 189.36 -47.87 Q 191.02 -54.33 195.64 -57.77 Q 200.25 -61.22 206.22 -61.22 Q 212.19 -61.22 215.91 -57.89 Q 219.63 -54.57 219.63 -47.74 L 219.63 -47.74 Q 219.63 -42.27 216.86 -39.04 Q 214.09 -35.81 209.05 -35.81 L 209.05 -35.81 Q 202.65 -35.81 199.94 -39.62 L 199.94 -39.62 Q 198.4 -41.84 198.4 -44.91 L 198.4 -44.91 Q 198.4 -47.19 199.2 -50.02 L 199.2 -50.02 L 203.76 -50.02 Q 204.86 -52.05 204.86 -53.34 L 204.86 -53.34 Q 204.86 -53.65 204.74 -54.02 L 204.74 -54.02 Q 204.37 -55.49 203.48 -55.99 Q 202.59 -56.48 201.11 -56.48 L 201.11 -56.48 Q 196.5 -56.48 192.93 -50.45 Q 189.36 -44.42 189.36 -36.05 L 189.36 -36.05 L 189.36 -2.28 L 198.28 -2.28 L 198.28 0 Z M 222.49 -29.84 L 222.49 -29.84 Q 222.49 -37.78 225.04 -43.9 Q 227.59 -50.02 232.12 -53.74 Q 236.64 -57.46 242.39 -59.34 Q 248.14 -61.22 254.85 -61.22 L 254.85 -61.22 Q 269.49 -61.28 276.2 -54.02 L 276.2 -54.02 Q 282.41 -47.31 282.41 -34.64 L 282.41 -34.64 Q 282.41 -33.59 282.35 -32.48 L 282.35 -32.48 L 246.79 -32.48 L 246.79 -27.62 Q 246.79 -21.59 247.4 -17.35 Q 248.02 -13.1 249.62 -9.63 Q 251.22 -6.15 254.2 -4.4 Q 257.19 -2.65 261.68 -2.65 L 261.68 -2.65 Q 268.57 -2.65 273.27 -6.74 Q 277.98 -10.83 280.07 -18.27 L 280.07 -18.27 L 282.35 -17.9 Q 281.18 -13.54 279.3 -10.27 Q 277.43 -7.01 274.32 -4.31 Q 271.21 -1.6 266.35 -0.18 Q 261.49 1.23 254.97 1.23 L 254.97 1.23 Q 238.73 1.23 230.61 -7.14 Q 222.49 -15.5 222.49 -29.84 Z M 246.91 -41.22 L 246.91 -35.01 L 259.89 -35.01 L 259.89 -41.22 Q 259.89 -51.5 258.69 -55.16 Q 257.49 -58.82 253.74 -58.82 L 253.74 -58.82 Q 250.3 -58.82 248.6 -54.85 Q 246.91 -50.88 246.91 -41.22 L 246.91 -41.22 Z M 306.99 0 L 289.82 0 L 289.82 -2.4 L 296.77 -2.4 L 296.77 -85.83 L 289.82 -85.83 L 289.82 -88.22 L 323.84 -88.22 L 340.64 -23.32 L 355.71 -88.22 L 389.37 -88.22 L 389.37 -85.83 L 382.41 -85.83 L 382.41 -2.4 L 389.37 -2.4 L 389.37 0 L 350.91 0 L 350.91 -2.4 L 357.87 -2.4 L 357.87 -81.15 L 357.37 -81.15 L 338.49 0 L 322.74 0 L 300.53 -81.52 L 300.03 -81.52 L 300.03 -2.4 L 306.99 -2.4 L 306.99 0 Z M 399.97 -57.71 L 392.9 -57.71 L 392.9 -59.99 L 423.41 -59.99 L 423.41 -16.73 Q 423.41 -11.5 423.97 -8.77 Q 424.52 -6.03 425.44 -5.23 Q 426.37 -4.43 428.09 -4.43 L 428.09 -4.43 Q 432.03 -4.43 434.52 -8.31 Q 437.01 -12.18 437.01 -19.13 L 437.01 -19.13 L 437.01 -57.71 L 431.23 -57.71 L 431.23 -59.99 L 460.45 -59.99 L 460.45 -2.28 L 467.4 -2.28 L 467.4 0 L 438.67 0 L 437.26 -9.23 Q 435.23 -4.18 431.29 -1.48 Q 427.35 1.23 419.48 1.23 L 419.48 1.23 Q 399.97 1.23 399.97 -19.81 L 399.97 -19.81 L 399.97 -57.71 Z M 475.43 1.23 L 473.95 1.23 L 473.95 -21.29 L 475.43 -21.29 Q 478.75 -10.34 484.29 -5.94 Q 489.82 -1.54 498.13 -1.54 L 498.13 -1.54 Q 510.99 -1.54 510.99 -9.72 L 510.99 -9.72 Q 510.99 -11.01 510.62 -12.03 Q 510.25 -13.04 509.27 -13.87 Q 508.28 -14.7 507.36 -15.29 Q 506.44 -15.87 504.53 -16.55 Q 502.62 -17.23 501.27 -17.6 Q 499.91 -17.96 497.27 -18.7 L 497.27 -18.7 Q 495.92 -19.07 495.24 -19.26 L 495.24 -19.26 Q 492.72 -19.93 490.87 -20.52 Q 489.02 -21.1 486.66 -22.12 Q 484.29 -23.13 482.6 -24.18 Q 480.9 -25.22 479.18 -26.79 Q 477.46 -28.36 476.38 -30.21 Q 475.3 -32.05 474.63 -34.55 Q 473.95 -37.04 473.95 -39.93 L 473.95 -39.93 Q 473.95 -49.59 480.01 -55.4 Q 486.07 -61.22 496.1 -61.22 L 496.1 -61.22 Q 502.5 -61.22 508.84 -58.32 L 508.84 -58.32 Q 509.14 -58.2 509.6 -57.99 Q 510.07 -57.77 510.31 -57.71 Q 510.56 -57.65 510.9 -57.52 Q 511.23 -57.4 511.57 -57.37 Q 511.91 -57.34 512.34 -57.34 L 512.34 -57.34 Q 513.76 -57.34 514.62 -58.17 Q 515.48 -59 516.77 -61.46 L 516.77 -61.46 L 518.13 -61.46 L 518.13 -42.21 L 516.65 -42.21 Q 513.26 -50.76 508.4 -54.66 Q 503.54 -58.57 496.72 -58.57 L 496.72 -58.57 Q 490.81 -58.57 487.92 -56.51 Q 485.03 -54.45 485.03 -51.31 L 485.03 -51.31 Q 485.03 -49.77 485.76 -48.54 Q 486.5 -47.31 487.67 -46.48 Q 488.84 -45.65 490.69 -44.91 Q 492.53 -44.17 494.32 -43.65 Q 496.1 -43.13 498.56 -42.45 L 498.56 -42.45 Q 500.1 -42.02 500.9 -41.84 L 500.9 -41.84 Q 503.85 -41.04 505.97 -40.33 Q 508.1 -39.62 510.74 -38.42 Q 513.39 -37.22 515.2 -35.65 Q 517.02 -34.08 518.65 -31.96 Q 520.28 -29.84 521.11 -26.89 Q 521.94 -23.93 521.94 -20.3 L 521.94 -20.3 Q 521.94 -9.78 515.63 -4.28 Q 509.33 1.23 498.38 1.23 L 498.38 1.23 Q 490.5 1.23 483.24 -2.4 L 483.24 -2.4 Q 481.76 -3.38 480.84 -3.38 L 480.84 -3.38 Q 478.07 -3.38 475.43 1.23 L 475.43 1.23 Z M 533.72 -57.71 L 526.27 -57.71 L 526.27 -59.99 L 557.16 -59.99 L 557.16 -2.28 L 564.23 -2.28 L 564.23 0 L 526.77 0 L 526.77 -2.28 L 533.72 -2.28 L 533.72 -57.71 Z M 532.98 -80.41 L 532.98 -80.41 Q 532.98 -85.52 536.09 -88.81 Q 539.19 -92.1 545.84 -92.1 L 545.84 -92.1 Q 551.81 -92.1 555.04 -89.18 Q 558.27 -86.26 558.27 -80.53 L 558.27 -80.53 Q 558.27 -75.18 555.16 -71.92 Q 552.05 -68.66 545.59 -68.66 L 545.59 -68.66 Q 541.96 -68.66 539.35 -69.71 Q 536.73 -70.75 535.41 -72.57 Q 534.09 -74.38 533.53 -76.29 Q 532.98 -78.2 532.98 -80.41 Z M 568.5 -29.22 L 568.5 -29.22 Q 568.5 -44.85 577.39 -53.03 Q 586.28 -61.22 602.16 -61.22 L 602.16 -61.22 Q 613.36 -61.22 619.26 -56.88 Q 625.17 -52.54 625.17 -45.22 L 625.17 -45.22 Q 625.17 -39.5 622.34 -36.45 Q 619.51 -33.41 614.71 -33.41 L 614.71 -33.41 Q 609.6 -33.41 606.56 -36.08 Q 603.51 -38.76 603.51 -43.87 L 603.51 -43.87 Q 603.51 -46.14 604.13 -48.36 L 604.13 -48.36 L 608.31 -48.36 Q 609.17 -50.88 609.17 -52.91 L 609.17 -52.91 Q 609.17 -55.99 607.54 -57.46 Q 605.91 -58.94 603.14 -58.94 L 603.14 -58.94 Q 597.61 -58.94 595.21 -52.94 Q 592.81 -46.94 592.81 -32.92 L 592.81 -32.92 L 592.81 -26.33 Q 592.81 -13.84 595.57 -8.43 Q 598.34 -3.01 605.54 -3.01 L 605.54 -3.01 Q 609.6 -3.01 612.89 -4.58 Q 616.19 -6.15 618.25 -8.74 Q 620.31 -11.32 621.51 -14 Q 622.71 -16.67 623.32 -19.5 L 623.32 -19.5 L 625.54 -19.26 Q 625.04 -16.86 624.4 -14.98 Q 623.75 -13.1 622.52 -10.52 Q 621.29 -7.94 619.35 -6.03 Q 617.42 -4.12 614.68 -2.37 Q 611.94 -0.62 607.85 0.31 Q 603.76 1.23 598.71 1.23 L 598.71 1.23 Q 584.13 1.23 576.32 -6.64 Q 568.5 -14.52 568.5 -29.22 Z" stroke-linecap="round" />
</g>
</g>
</g>
</svg>